{"glyphs":{"0":{"ha":1086,"x_min":0,"x_max":0,"o":"m 543 -14 b 64 521 272 -14 64 201 b 543 1056 64 843 272 1056 b 1022 521 814 1056 1022 843 b 543 -14 1022 201 814 -14 m 543 146 b 786 521 689 146 786 297 b 543 896 786 747 689 896 b 300 521 397 896 300 747 b 543 146 300 297 397 146 "},"1":{"ha":558,"x_min":0,"x_max":0,"o":"m 239 797 l 28 585 l 28 831 l 239 1042 l 447 1042 l 447 0 l 239 0 "},"2":{"ha":993,"x_min":0,"x_max":0,"o":"m 83 206 l 422 435 b 701 719 565 531 701 603 b 511 882 701 822 625 882 b 306 719 388 882 306 818 l 97 719 b 513 1056 97 922 264 1056 b 910 719 751 1056 910 922 b 635 346 910 551 797 444 l 375 188 l 938 188 l 938 0 l 83 0 "},"3":{"ha":958,"x_min":0,"x_max":0,"o":"m 479 -14 b 64 315 226 -14 65 125 l 272 315 b 481 154 279 221 357 154 b 686 314 608 154 686 222 b 471 457 686 436 600 461 l 388 454 l 388 618 l 471 615 b 668 757 589 611 668 644 b 481 889 668 849 599 889 b 300 736 361 889 300 826 l 92 736 b 481 1056 90 922 235 1056 b 876 757 724 1056 876 943 b 738 536 876 676 851 574 b 894 314 851 499 894 403 b 479 -14 894 126 733 -14 "},"4":{"ha":900,"x_min":0,"x_max":0,"o":"m 521 249 l 28 249 l 28 408 l 489 1042 l 729 1042 l 729 408 l 844 408 l 844 249 l 729 249 l 729 0 l 521 0 m 521 408 l 521 817 l 225 408 "},"5":{"ha":976,"x_min":0,"x_max":0,"o":"m 506 -14 b 111 294 267 -14 151 122 l 326 294 b 506 146 346 226 383 146 b 701 353 632 146 701 247 b 506 553 701 458 632 553 b 300 450 397 553 342 510 l 111 450 l 172 1042 l 854 1042 l 854 882 l 354 882 l 332 661 b 506 713 376 690 436 713 b 913 353 757 713 913 567 b 506 -14 913 139 757 -14 "},"6":{"ha":947,"x_min":0,"x_max":0,"o":"m 486 -14 b 64 522 178 -14 64 238 b 486 1056 64 804 204 1056 b 847 768 675 1056 814 947 l 643 768 b 486 896 625 853 563 896 b 263 592 301 896 265 732 b 525 700 310 656 426 700 b 883 358 743 700 883 536 b 486 -14 883 146 725 -14 m 490 161 b 689 358 607 161 689 247 b 490 538 689 471 607 538 b 281 349 367 538 281 461 b 490 161 281 238 367 161 "},"7":{"ha":999,"x_min":0,"x_max":0,"o":"m 735 879 l 111 882 l 111 1042 l 943 1042 l 943 882 l 376 0 l 168 0 "},"8":{"ha":972,"x_min":0,"x_max":0,"o":"m 756 506 b 892 292 857 469 892 369 b 486 -14 892 125 772 -14 b 81 292 200 -14 81 125 b 217 506 81 369 115 469 b 64 738 115 542 64 625 b 486 1056 64 896 203 1056 b 908 738 769 1056 908 896 b 756 506 908 625 857 542 m 486 882 b 272 731 339 882 272 806 b 486 578 272 649 339 578 b 700 731 633 578 700 649 b 486 882 700 806 633 882 m 486 160 b 683 299 618 160 683 229 b 486 439 683 372 618 439 b 289 299 354 439 289 372 b 486 160 289 229 354 160 "},"9":{"ha":947,"x_min":0,"x_max":0,"o":"m 461 1063 b 883 526 769 1063 883 811 b 461 -7 883 244 743 -7 b 100 281 272 -7 133 101 l 304 281 b 461 153 322 196 385 153 b 685 457 646 153 682 317 b 422 349 638 393 521 349 b 64 690 204 349 64 513 b 461 1063 64 903 222 1063 m 457 888 b 258 690 340 888 258 801 b 457 511 258 578 340 511 b 667 700 581 511 667 588 b 457 888 667 811 581 888 "},"A":{"ha":1033,"x_min":0,"x_max":0,"o":"m 703 196 l 331 196 l 267 0 l 28 0 l 436 1042 l 597 1042 l 1006 0 l 767 0 m 651 356 l 517 768 l 382 356 "},"B":{"ha":1014,"x_min":0,"x_max":0,"o":"m 111 1042 l 561 1042 b 897 767 792 1042 897 903 b 746 535 897 671 844 576 b 950 293 879 504 950 401 b 561 0 950 150 826 0 l 111 0 m 540 619 b 689 754 639 619 689 690 b 540 882 689 817 639 882 l 319 882 l 319 619 m 569 168 b 742 317 690 168 742 242 b 569 460 742 390 690 460 l 319 460 l 319 168 "},"C":{"ha":1083,"x_min":0,"x_max":0,"o":"m 569 -14 b 69 521 244 -14 69 238 b 569 1056 69 803 244 1056 b 1018 704 813 1056 979 917 l 810 704 b 569 896 788 819 697 896 b 282 522 365 896 282 706 b 569 146 282 338 365 146 b 811 336 697 146 789 224 l 1019 336 b 569 -14 981 138 813 -14 "},"D":{"ha":1076,"x_min":0,"x_max":0,"o":"m 111 1042 l 506 1042 b 1013 525 843 1042 1013 782 b 506 0 1013 261 843 0 l 111 0 m 506 160 b 804 525 703 160 804 349 b 506 882 804 708 703 882 l 319 882 l 319 160 "},"E":{"ha":967,"x_min":0,"x_max":0,"o":"m 111 1042 l 856 1042 l 856 882 l 319 882 l 319 601 l 785 601 l 785 442 l 319 442 l 319 160 l 856 160 l 856 0 l 111 0 "},"F":{"ha":886,"x_min":0,"x_max":0,"o":"m 111 1042 l 858 1042 l 858 882 l 319 882 l 319 596 l 789 596 l 789 436 l 319 436 l 319 0 l 111 0 "},"G":{"ha":1099,"x_min":0,"x_max":0,"o":"m 1029 583 l 1029 0 l 903 0 l 858 96 b 575 -17 782 22 690 -17 b 64 528 250 -17 64 231 b 575 1060 64 813 250 1060 b 1014 704 838 1060 971 890 l 825 704 b 575 900 796 811 707 900 b 276 528 371 900 276 713 b 575 143 276 343 371 143 b 861 424 746 143 857 253 l 518 424 l 518 583 "},"H":{"ha":1053,"x_min":0,"x_max":0,"o":"m 111 1042 l 319 1042 l 319 607 l 733 607 l 733 1042 l 942 1042 l 942 0 l 733 0 l 733 447 l 319 447 l 319 0 l 111 0 "},"I":{"ha":431,"x_min":0,"x_max":0,"o":"m 111 1042 l 319 1042 l 319 0 l 111 0 "},"J":{"ha":932,"x_min":0,"x_max":0,"o":"m 442 -14 b 64 360 217 -14 64 135 l 272 360 b 443 146 272 206 360 146 b 613 360 526 146 613 206 l 613 1042 l 821 1042 l 821 360 b 442 -14 821 135 667 -14 "},"K":{"ha":965,"x_min":0,"x_max":0,"o":"m 111 1042 l 319 1042 l 319 578 l 644 1042 l 888 1042 l 522 536 l 901 0 l 658 0 l 319 478 l 319 0 l 111 0 "},"L":{"ha":840,"x_min":0,"x_max":0,"o":"m 111 1042 l 319 1042 l 319 160 l 813 160 l 813 0 l 111 0 "},"M":{"ha":1264,"x_min":0,"x_max":0,"o":"m 111 1042 l 403 1042 l 625 268 l 861 1042 l 1153 1042 l 1153 0 l 944 0 l 944 732 l 717 0 l 533 0 l 319 732 l 319 0 l 111 0 "},"N":{"ha":1136,"x_min":0,"x_max":0,"o":"m 111 1042 l 319 1042 l 817 347 l 817 1042 l 1025 1042 l 1025 0 l 831 0 l 319 694 l 319 0 l 111 0 "},"O":{"ha":1179,"x_min":0,"x_max":0,"o":"m 593 -14 b 64 521 268 -14 64 233 b 593 1056 64 808 268 1056 b 1115 521 913 1056 1115 808 b 593 -14 1115 233 913 -14 m 593 146 b 903 521 800 146 903 336 b 593 896 903 707 800 896 b 276 521 385 896 276 707 b 593 146 276 336 385 146 "},"P":{"ha":960,"x_min":0,"x_max":0,"o":"m 111 1042 l 629 1042 b 947 733 819 1042 947 918 b 629 425 947 549 819 425 l 319 425 l 319 0 l 111 0 m 588 585 b 738 733 678 585 738 649 b 588 882 738 824 678 882 l 319 882 l 319 585 "},"Q":{"ha":1193,"x_min":0,"x_max":0,"o":"m 997 -33 l 889 75 b 590 -14 807 19 707 -14 b 64 521 265 -14 64 233 b 590 1056 64 808 265 1056 b 1110 521 910 1056 1110 808 b 1014 201 1110 403 1076 292 l 1124 93 m 590 146 b 761 201 658 146 715 167 l 518 442 l 644 569 l 867 349 b 897 521 888 403 897 463 b 590 896 897 707 797 896 b 276 521 382 896 276 707 b 590 146 276 336 382 146 "},"R":{"ha":975,"x_min":0,"x_max":0,"o":"m 876 167 b 947 40 888 82 947 40 l 947 0 l 732 0 b 660 167 717 15 674 69 l 646 268 b 501 408 632 368 583 408 l 329 408 l 329 0 l 111 0 l 111 1042 l 597 1042 b 915 719 788 1042 915 904 b 751 442 915 590 853 490 b 863 279 815 404 854 342 l 876 167 m 329 561 l 557 561 b 707 719 647 561 707 635 b 557 879 707 810 647 879 l 329 879 "},"S":{"ha":1063,"x_min":0,"x_max":0,"o":"m 518 -14 b 64 367 246 -14 60 144 l 286 367 b 521 157 285 253 363 157 b 776 311 664 157 772 196 b 360 465 782 446 560 415 b 100 756 218 500 97 571 b 538 1056 104 971 321 1056 b 961 714 753 1056 965 951 l 739 714 b 535 890 742 836 651 890 b 322 756 421 890 324 856 b 700 604 319 628 508 643 b 999 310 854 574 1003 507 b 518 -14 994 85 768 -14 "},"T":{"ha":886,"x_min":0,"x_max":0,"o":"m 339 882 l 28 882 l 28 1042 l 858 1042 l 858 882 l 547 882 l 547 0 l 339 0 "},"U":{"ha":1171,"x_min":0,"x_max":0,"o":"m 585 -12 b 111 458 349 -12 111 144 l 111 1042 l 333 1042 l 333 443 b 586 194 333 269 453 194 b 838 443 718 194 838 269 l 838 1042 l 1060 1042 l 1060 458 b 585 -12 1060 144 822 -12 "},"V":{"ha":1031,"x_min":0,"x_max":0,"o":"m 28 1042 l 239 1042 l 515 268 l 792 1042 l 1003 1042 l 614 0 l 417 0 "},"W":{"ha":1463,"x_min":0,"x_max":0,"o":"m 28 1042 l 253 1042 l 436 282 l 661 1042 l 801 1042 l 1040 282 l 1210 1042 l 1435 1042 l 1140 0 l 928 0 l 731 690 l 535 0 l 336 0 "},"X":{"ha":1135,"x_min":0,"x_max":0,"o":"m 694 521 l 1079 0 l 826 0 l 568 350 l 308 0 l 56 0 l 442 521 l 56 1042 l 308 1042 l 568 692 l 826 1042 l 1079 1042 "},"Y":{"ha":1011,"x_min":0,"x_max":0,"o":"m 401 436 l 28 1042 l 236 1042 l 506 582 l 775 1042 l 983 1042 l 610 436 l 610 0 l 401 0 "},"Z":{"ha":1093,"x_min":0,"x_max":0,"o":"m 111 160 l 704 882 l 111 882 l 111 1042 l 982 1042 l 982 882 l 389 160 l 982 160 l 982 0 l 111 0 "},"a":{"ha":844,"x_min":0,"x_max":0,"o":"m 335 -14 b 44 239 111 -14 44 108 b 363 458 44 351 139 458 b 567 436 488 458 567 436 l 567 528 b 433 636 567 614 499 636 b 289 514 365 636 289 614 l 94 514 b 426 796 94 714 253 796 b 775 528 606 796 775 714 l 775 0 l 615 0 l 586 101 b 335 -14 542 33 446 -14 m 360 142 b 563 303 543 142 563 303 b 375 326 563 303 490 326 b 242 236 289 326 242 288 b 360 142 242 188 288 142 "},"b":{"ha":919,"x_min":0,"x_max":0,"o":"m 493 -14 b 246 117 383 -14 294 40 l 217 0 l 69 0 l 69 1042 l 278 1042 l 278 692 b 493 796 319 750 406 796 b 875 390 722 796 875 640 b 493 -14 875 140 722 -14 m 469 146 b 667 390 585 146 667 232 b 469 636 667 549 585 636 b 272 390 354 636 272 549 b 469 146 272 232 354 146 "},"c":{"ha":847,"x_min":0,"x_max":0,"o":"m 439 -11 b 44 392 174 -11 44 190 b 439 793 44 592 174 793 b 803 501 658 793 779 647 l 597 501 b 439 633 583 571 522 633 b 253 392 315 633 253 508 b 439 149 253 274 315 149 b 597 281 522 149 583 211 l 803 281 b 439 -11 779 135 658 -11 "},"d":{"ha":919,"x_min":0,"x_max":0,"o":"m 426 -14 b 44 390 197 -14 44 140 b 426 796 44 640 197 796 b 642 692 514 796 600 750 l 642 1042 l 850 1042 l 850 0 l 703 0 l 674 117 b 426 -14 625 40 536 -14 m 450 146 b 647 390 565 146 647 232 b 450 636 647 549 565 636 b 253 390 335 636 253 549 b 450 146 253 232 335 146 "},"e":{"ha":867,"x_min":0,"x_max":0,"o":"m 819 338 l 243 338 b 421 149 247 268 303 149 b 583 246 497 149 558 183 l 785 246 b 421 -11 747 107 632 -11 b 44 390 200 -11 44 160 b 426 794 44 632 190 794 b 822 392 663 794 822 633 m 426 635 b 247 469 338 635 268 572 l 629 469 b 426 635 608 572 546 635 "},"f":{"ha":575,"x_min":0,"x_max":0,"o":"m 149 622 l 35 622 l 35 782 l 149 782 b 443 1096 149 1029 315 1096 b 557 1082 513 1096 557 1082 l 557 936 b 469 947 557 936 510 947 b 332 782 372 947 332 894 l 515 782 l 515 622 l 332 622 l 332 1 l 149 1 "},"g":{"ha":908,"x_min":0,"x_max":0,"o":"m 679 153 b 864 -85 794 125 864 57 b 468 -361 864 -268 739 -361 b 44 -85 197 -361 44 -268 b 131 82 44 -1 79 50 b 83 203 101 110 83 147 b 172 314 83 256 119 300 b 97 513 122 361 97 428 b 440 796 97 699 215 796 b 671 743 538 796 614 778 b 858 842 731 843 858 842 l 858 676 b 840 678 858 676 851 678 b 760 640 821 678 782 669 b 785 513 776 604 785 561 b 440 231 785 328 667 231 b 303 246 389 231 343 236 b 292 224 296 242 292 235 b 679 153 292 132 517 192 m 440 636 b 306 513 346 636 306 583 b 440 390 306 442 346 390 b 576 513 536 390 576 442 b 440 636 576 583 536 636 m 468 -201 b 656 -85 579 -201 656 -172 b 319 22 656 31 478 10 b 253 -85 272 -6 253 -40 b 468 -201 253 -172 357 -201 "},"h":{"ha":850,"x_min":0,"x_max":0,"o":"m 69 1042 l 278 1042 l 278 725 b 475 796 306 753 369 796 b 781 443 686 796 781 682 l 781 0 l 572 0 l 572 443 b 431 640 572 576 538 640 b 278 443 354 640 278 593 l 278 0 l 69 0 "},"i":{"ha":444,"x_min":0,"x_max":0,"o":"m 83 1042 l 292 1042 l 292 860 l 83 860 m 278 -7 b 83 174 181 -7 83 47 l 83 782 l 292 782 l 292 232 b 350 160 292 189 307 160 b 403 174 375 160 403 174 l 403 7 b 278 -7 403 7 389 -7 "},"j":{"ha":519,"x_min":0,"x_max":0,"o":"m 242 1040 l 450 1040 l 450 858 l 242 858 m 218 -256 b 42 -210 114 -256 42 -210 l 42 -62 b 171 -96 42 -62 128 -96 b 242 0 215 -96 242 -71 l 242 782 l 450 782 l 450 0 b 218 -256 450 -182 333 -256 "},"k":{"ha":806,"x_min":0,"x_max":0,"o":"m 472 392 l 788 0 l 547 0 l 278 335 l 278 0 l 69 0 l 69 1042 l 278 1042 l 278 449 l 547 782 l 788 782 "},"l":{"ha":444,"x_min":0,"x_max":0,"o":"m 264 -14 b 69 168 167 -14 69 43 l 69 1042 l 278 1042 l 278 217 b 332 146 278 174 292 146 b 403 160 375 146 403 160 l 403 28 b 264 -14 403 28 375 -14 "},"m":{"ha":1342,"x_min":0,"x_max":0,"o":"m 975 796 b 1272 463 1178 796 1272 686 l 1272 0 l 1064 0 l 1064 463 b 919 636 1064 586 1006 636 b 775 463 833 636 775 586 l 775 0 l 567 0 l 567 463 b 422 636 567 586 508 636 b 278 463 336 636 278 586 l 278 0 l 69 0 l 69 782 l 222 782 l 256 679 b 478 796 256 679 319 796 b 740 656 610 796 696 750 b 975 796 775 729 857 796 "},"n":{"ha":844,"x_min":0,"x_max":0,"o":"m 69 782 l 222 782 l 256 679 b 478 796 256 679 319 796 b 775 463 681 796 775 686 l 775 0 l 567 0 l 567 463 b 422 638 567 590 508 638 b 278 463 336 638 278 590 l 278 0 l 69 0 "},"o":{"ha":889,"x_min":0,"x_max":0,"o":"m 444 -14 b 44 392 207 -14 44 150 b 444 796 44 633 207 796 b 844 392 682 796 844 633 b 444 -14 844 150 682 -14 m 444 146 b 632 392 557 146 632 246 b 444 636 632 538 557 636 b 257 392 332 636 257 538 b 444 146 257 246 332 146 "},"p":{"ha":919,"x_min":0,"x_max":0,"o":"m 493 796 b 875 392 722 796 875 642 b 493 -14 875 142 722 -14 b 278 90 406 -14 319 32 l 278 -260 l 69 -260 l 69 782 l 217 782 l 246 665 b 493 796 294 742 383 796 m 469 636 b 272 392 354 636 272 550 b 469 146 272 233 354 146 b 667 392 585 146 667 233 b 469 636 667 550 585 636 "},"q":{"ha":919,"x_min":0,"x_max":0,"o":"m 426 796 b 674 665 536 796 625 742 l 703 782 l 850 782 l 850 -260 l 642 -260 l 642 90 b 426 -14 600 32 514 -14 b 44 392 197 -14 44 142 b 426 796 44 642 197 796 m 450 636 b 253 392 335 636 253 550 b 450 146 253 233 335 146 b 647 392 565 146 647 233 b 450 636 647 550 565 636 "},"r":{"ha":558,"x_min":0,"x_max":0,"o":"m 69 782 l 222 782 l 249 683 b 460 796 288 743 361 796 l 524 796 l 524 601 l 453 603 b 278 433 347 604 278 550 l 278 0 l 69 0 "},"s":{"ha":774,"x_min":0,"x_max":0,"o":"m 390 -7 b 44 260 181 -7 47 94 l 239 260 b 390 142 242 186 292 142 b 535 253 486 142 535 179 b 160 378 535 378 308 286 b 64 554 93 417 64 471 b 390 803 64 714 182 803 b 692 554 581 803 688 706 l 511 554 b 390 654 506 613 465 654 b 258 554 306 654 258 618 b 618 444 258 433 467 517 b 729 267 696 407 729 351 b 390 -7 729 92 607 -7 "},"t":{"ha":558,"x_min":0,"x_max":0,"o":"m 353 -14 b 144 189 244 -14 144 33 l 144 622 l 18 622 l 18 782 l 144 782 l 144 932 l 339 1042 l 339 782 l 524 782 l 524 622 l 339 622 l 339 217 b 404 154 339 175 363 154 b 524 179 443 154 524 179 l 524 33 b 353 -14 524 33 461 -14 "},"u":{"ha":844,"x_min":0,"x_max":0,"o":"m 775 0 l 622 0 l 589 103 b 367 -14 589 103 525 -14 b 69 319 164 -14 69 96 l 69 782 l 278 782 l 278 319 b 422 144 278 192 336 144 b 567 319 508 144 567 192 l 567 782 l 775 782 "},"v":{"ha":853,"x_min":0,"x_max":0,"o":"m 35 782 l 243 782 l 426 265 l 610 782 l 818 782 l 524 0 l 329 0 "},"w":{"ha":1261,"x_min":0,"x_max":0,"o":"m 1226 782 l 988 0 l 793 0 l 631 506 l 468 0 l 274 0 l 35 782 l 243 782 l 385 265 l 526 754 l 735 754 l 876 265 l 1018 782 "},"x":{"ha":807,"x_min":0,"x_max":0,"o":"m 571 0 l 404 242 l 236 0 l 14 0 l 293 401 l 28 782 l 250 782 l 404 561 l 557 782 l 779 782 l 515 401 l 793 0 "},"y":{"ha":883,"x_min":0,"x_max":0,"o":"m 849 782 l 504 -139 b 313 -268 468 -235 382 -268 b 181 -235 242 -268 181 -235 l 181 -86 b 254 -101 181 -86 215 -101 b 342 -46 288 -101 325 -89 l 368 26 l 69 782 l 269 782 l 465 288 l 649 782 "},"z":{"ha":811,"x_min":0,"x_max":0,"o":"m 69 160 l 492 622 l 85 622 l 85 782 l 742 782 l 742 622 l 319 160 l 726 160 l 726 0 l 69 0 "}}}
